<svg width="629" height="631" viewBox="0 0 629 631" fill="none" xmlns="http://www.w3.org/2000/svg">
<path d="M314.5 39.4375C191.321 39.4375 91.7291 138.031 91.7291 260.287C91.7291 360.196 162.492 446.958 256.842 541.608C275.187 560.012 294.844 578.417 314.5 595.506C334.156 578.417 353.812 560.012 372.158 541.608C466.508 446.958 537.271 360.196 537.271 260.287C537.271 138.031 437.679 39.4375 314.5 39.4375Z" fill="url(#paint0_linear_48_990)"/>
<path opacity="0.95" d="M258.152 289.208H247.669C237.537 289.208 229.323 297.448 229.323 307.612V352.308C229.323 362.472 237.537 370.712 247.669 370.712H258.152C268.284 370.712 276.498 362.472 276.498 352.308V307.612C276.498 297.448 268.284 289.208 258.152 289.208Z" fill="white"/>
<path d="M322.363 231.366H311.879C301.747 231.366 293.533 239.606 293.533 249.77V352.308C293.533 362.472 301.747 370.712 311.879 370.712H322.363C332.495 370.712 340.708 362.472 340.708 352.308V249.77C340.708 239.606 332.495 231.366 322.363 231.366Z" fill="white"/>
<path opacity="0.95" d="M386.573 262.917H376.09C365.957 262.917 357.744 271.157 357.744 281.321V352.309C357.744 362.473 365.957 370.713 376.09 370.713H386.573C396.705 370.713 404.919 362.473 404.919 352.309V281.321C404.919 271.157 396.705 262.917 386.573 262.917Z" fill="white"/>
<defs>
<linearGradient id="paint0_linear_48_990" x1="104.833" y1="52.5833" x2="525.791" y2="577.113" gradientUnits="userSpaceOnUse">
<stop stop-color="#637FC3"/>
<stop offset="0.55" stop-color="#0F172B"/>
<stop offset="1" stop-color="#04A6BF"/>
</linearGradient>
</defs>
</svg>
